HIERARCHY
ROOT hip
{
	OFFSET 0.0000 -2.1274 0.0000
	CHANNELS 6 Xposition Yposition Zposition Zrotation Yrotation Xrotation 
	JOINT abdomen
	{
		OFFSET 0.0000 20.6881 -0.7315
		CHANNELS 3 Zrotation Xrotation Yrotation
		JOINT chest
		{
			OFFSET 0.0000 11.7043 -0.4877
			CHANNELS 3 Zrotation Xrotation Yrotation
			JOINT neck
			{
				OFFSET 0.0000 22.1894 -2.1946
				CHANNELS 3 Zrotation Xrotation Yrotation
				JOINT head
				{
					OFFSET -0.2438 7.0713 1.2192
					CHANNELS 3 Zrotation Xrotation Yrotation
					JOINT lefteye
					{
						OFFSET 4.1453 8.0467 8.0467
						CHANNELS 3 Zrotation Xrotation Yrotation
						End Site
						{
							OFFSET 1.0000 0.0000 0.0000
						}
					}
					JOINT righteye
					{
						OFFSET -3.6576 8.0467 8.0467
						CHANNELS 3 Zrotation Xrotation Yrotation
						End Site
						{
							OFFSET 1.0000 0.0000 0.0000
						}
					}
				}
			}
			JOINT rcollar
			{
				OFFSET -2.6822 19.2634 -4.8768
				CHANNELS 3 Zrotation Xrotation Yrotation
				JOINT rshldr
				{
					OFFSET -8.7782 -1.9507 1.4630
					CHANNELS 3 Zrotation Xrotation Yrotation
					JOINT rforearm
					{
						OFFSET -28.1742 -1.7115 0.4877
						CHANNELS 3 Zrotation Xrotation Yrotation
						JOINT rhand
						{
							OFFSET -22.5879 0.7732 7.0714
							CHANNELS 3 Zrotation Xrotation Yrotation
							JOINT rthumb1
							{
								OFFSET -1.2192 -0.4879 3.4138
								CHANNELS 3 Zrotation Xrotation Yrotation
								JOINT rthumb2
								{
									OFFSET -3.3703 -0.5245 3.4138
									CHANNELS 3 Zrotation Xrotation Yrotation
									End Site
									{
										OFFSET -1.7827 -1.1821 1.4305
									}
								}
							}
							JOINT rindex1
							{
								OFFSET -7.7595 0.9383 5.6083
								CHANNELS 3 Zrotation Xrotation Yrotation
								JOINT rindex2
								{
									OFFSET -2.5406 -0.8842 1.5654
									CHANNELS 3 Zrotation Xrotation Yrotation
									End Site
									{
										OFFSET -1.6252 -0.2348 1.1650
									}
								}
							}
							JOINT rmid1
							{
								OFFSET -8.2471 1.1821 3.4138
								CHANNELS 3 Zrotation Xrotation Yrotation
								JOINT rmid2
								{
									OFFSET -3.1016 -0.5901 1.0647
									CHANNELS 3 Zrotation Xrotation Yrotation
									End Site
									{
										OFFSET -2.4855 -0.3289 0.8374
									}
								}
							}
							JOINT rring1
							{
								OFFSET -8.8282 0.5467 1.5168
								CHANNELS 3 Zrotation Xrotation Yrotation
								JOINT rring2
								{
									OFFSET -2.6093 -0.8198 -0.0198
									CHANNELS 3 Zrotation Xrotation Yrotation
									End Site
									{
										OFFSET -2.3384 -0.2941 0.1681
									}
								}
							}
							JOINT rpinky1
							{
								OFFSET -8.2720 -0.0478 -0.4584
								CHANNELS 3 Zrotation Xrotation Yrotation
								JOINT rpinky2
								{
									OFFSET -1.8273 -0.6474 -0.7010
									CHANNELS 3 Zrotation Xrotation Yrotation
									End Site
									{
										OFFSET -1.6923 -0.5177 -0.6072
									}
								}
							}
						}
					}
				}
			}
			JOINT lcollar
			{
				OFFSET 2.6822 19.2634 -4.8768
				CHANNELS 3 Zrotation Xrotation Yrotation
				JOINT lshldr
				{
					OFFSET 8.7782 -1.9507 1.4630
					CHANNELS 3 Zrotation Xrotation Yrotation
					JOINT lforearm
					{
						OFFSET 28.1742 -1.7115 0.4877
						CHANNELS 3 Zrotation Xrotation Yrotation
						JOINT lhand
						{
							OFFSET 22.5879 0.7732 7.0714
							CHANNELS 3 Zrotation Xrotation Yrotation
							JOINT lthumb1
							{
								OFFSET 1.2192 -0.4879 3.4138
								CHANNELS 3 Zrotation Xrotation Yrotation
								JOINT lthumb2
								{
									OFFSET 3.3703 -0.5245 3.4138
									CHANNELS 3 Zrotation Xrotation Yrotation
									End Site
									{
										OFFSET 1.7827 -1.1821 1.4305
									}
								}
							}
							JOINT lindex1
							{
								OFFSET 7.7595 0.9383 5.6083
								CHANNELS 3 Zrotation Xrotation Yrotation
								JOINT lindex2
								{
									OFFSET 2.5406 -0.8842 1.5654
									CHANNELS 3 Zrotation Xrotation Yrotation
									End Site
									{
										OFFSET 1.6252 -0.2348 1.1650
									}
								}
							}
							JOINT lmid1
							{
								OFFSET 8.2471 1.1821 3.4138
								CHANNELS 3 Zrotation Xrotation Yrotation
								JOINT lmid2
								{
									OFFSET 3.1016 -0.5901 1.0647
									CHANNELS 3 Zrotation Xrotation Yrotation
									End Site
									{
										OFFSET 2.4855 -0.3289 0.8374
									}
								}
							}
							JOINT lring1
							{
								OFFSET 8.8282 0.5467 1.5168
								CHANNELS 3 Zrotation Xrotation Yrotation
								JOINT lring2
								{
									OFFSET 2.6093 -0.8198 -0.0198
									CHANNELS 3 Zrotation Xrotation Yrotation
									End Site
									{
										OFFSET 2.3384 -0.2941 0.1681
									}
								}
							}
							JOINT lpinky1
							{
								OFFSET 8.2720 -0.0478 -0.4584
								CHANNELS 3 Zrotation Xrotation Yrotation
								JOINT lpinky2
								{
									OFFSET 1.8273 -0.6474 -0.7010
									CHANNELS 3 Zrotation Xrotation Yrotation
									End Site
									{
										OFFSET 1.6923 -0.5177 -0.6072
									}
								}
							}
						}
					}
				}
			}
		}
	}
	JOINT rbuttock
	{
		OFFSET -8.7782 4.3508 1.2192
		CHANNELS 3 Zrotation Xrotation Yrotation
		JOINT rthigh
		{
			OFFSET 0.0000 -1.7069 -2.1946
			CHANNELS 3 Zrotation Xrotation Yrotation
			JOINT rshin
			{
				OFFSET 0.0000 -36.8199 0.7315
				CHANNELS 3 Zrotation Xrotation Yrotation
				JOINT rfoot
				{
					OFFSET 0.7315 -45.1104 -5.1206
					CHANNELS 3 Zrotation Xrotation Yrotation
					End Site
					{
						OFFSET -1.1221 -3.6996 12.1030
					}
				}
			}
		}
	}
	JOINT lbuttock
	{
		OFFSET 8.7782 4.3508 1.2192
		CHANNELS 3 Zrotation Xrotation Yrotation
		JOINT lthigh
		{
			OFFSET 0.0000 -1.7069 -2.1946
			CHANNELS 3 Zrotation Xrotation Yrotation
			JOINT lshin
			{
				OFFSET 0.0000 -36.8199 0.7315
				CHANNELS 3 Zrotation Xrotation Yrotation
				JOINT lfoot
				{
					OFFSET -0.7315 -45.1104 -5.1206
					CHANNELS 3 Zrotation Xrotation Yrotation
					End Site
					{
						OFFSET 1.1221 -3.6996 12.1030
					}
				}
			}
		}
	}
}
MOTION
Frames: 4
Frame Time: 0.008333
87.917503 66.254898 53.567699 1.244500 -4.710400 7.061100 -5.413980 9.377140 2.768810 0.545782 -3.612640 0.490622 10.912300 4.628930 16.455099 -35.038898 13.291800 35.194302 -0.000000 0.000000 0.000000 -0.000000 0.000000 0.000000 -0.000000 -0.000000 0.000000 86.125298 32.665699 -8.951090 -23.381901 -17.985201 47.709999 -0.033656 -5.229260 -0.736993 0.000000 -0.000000 -0.000000 0.000000 -0.000000 -0.000000 0.000000 -0.000000 -0.000000 7.730910 5.474880 0.417314 0.000000 -0.000000 -0.000000 2.905540 0.965183 0.102902 0.000000 -0.000000 -0.000000 10.278600 0.731801 0.025912 0.000000 -0.000000 -0.000000 2.221670 -0.733487 -0.208920 -0.000000 -0.000000 0.000000 -81.288300 20.323999 5.668000 25.760099 -22.834000 -55.792900 0.035254 -5.351550 0.754328 -0.000000 -0.000000 0.000000 -0.000000 -0.000000 0.000000 -0.000000 -0.000000 0.000000 -7.730910 5.474880 -0.417314 -0.000000 -0.000000 0.000000 -2.905540 0.965183 -0.102902 -0.000000 -0.000000 0.000000 -10.278600 0.731801 -0.025912 -0.000000 -0.000000 0.000000 -2.221670 -0.733487 0.208920 -0.000000 0.000000 -0.000000 -4.744460 -26.542400 -10.955800 -170.776001 81.671898 170.231003 -1.366930 -27.337200 4.213600 0.000000 0.000000 0.000000 -8.915500 -13.606600 -2.892810 0.102595 14.076700 0.508719 0.863822 -1.737000 -5.938560
87.841103 66.298599 54.132000 1.143600 -4.734800 7.102500 -5.420970 9.439160 2.538170 0.592242 -3.549170 0.450633 11.041600 4.604080 16.537300 -35.120399 13.178500 35.295101 -0.000000 0.000000 0.000000 -0.000000 0.000000 0.000000 -0.000000 -0.000000 0.000000 85.921997 32.365299 -8.695900 -23.289900 -17.827499 47.429401 -0.034297 -5.258990 -0.741234 0.000000 -0.000000 -0.000000 0.000000 -0.000000 -0.000000 0.000000 -0.000000 -0.000000 7.730910 5.474880 0.417314 0.000000 -0.000000 -0.000000 2.905540 0.965183 0.102902 0.000000 -0.000000 -0.000000 10.278600 0.731801 0.025912 0.000000 -0.000000 -0.000000 2.221670 -0.733487 -0.208920 -0.000000 -0.000000 0.000000 -80.849602 20.442301 5.414340 25.720699 -22.738100 -55.635300 0.033409 -5.200780 0.732961 -0.000000 -0.000000 0.000000 -0.000000 -0.000000 0.000000 -0.000000 -0.000000 0.000000 -7.730910 5.474880 -0.417314 -0.000000 -0.000000 0.000000 -2.905540 0.965183 -0.102902 -0.000000 -0.000000 0.000000 -10.278600 0.731801 -0.025912 -0.000000 -0.000000 0.000000 -2.221670 -0.733487 0.208920 -0.000000 0.000000 -0.000000 -5.020050 -28.835501 -11.336900 -169.811996 82.539803 169.253998 -1.479960 -26.725100 3.386030 0.000000 0.000000 0.000000 -8.888080 -12.522000 -2.776030 0.088561 13.073100 0.425428 0.927333 -1.516570 -6.224220
87.802299 66.305901 54.727501 1.175700 -4.662600 7.081600 -5.346370 9.485010 2.300110 0.601950 -3.406620 0.405957 11.233000 4.521790 16.629801 -35.241001 13.101000 35.412899 -0.000000 0.000000 0.000000 -0.000000 0.000000 0.000000 0.000000 -0.000000 -0.000000 85.675400 32.035301 -8.339110 -23.164801 -17.614799 47.056499 -0.034115 -5.217170 -0.735348 0.000000 -0.000000 -0.000000 0.000000 -0.000000 -0.000000 0.000000 -0.000000 -0.000000 7.730910 5.474880 0.417314 0.000000 -0.000000 -0.000000 2.905540 0.965183 0.102902 0.000000 -0.000000 -0.000000 10.278600 0.731801 0.025912 0.000000 -0.000000 -0.000000 2.221670 -0.733487 -0.208920 0.000000 -0.000000 -0.000000 -80.331497 20.559601 5.051770 25.667700 -22.610201 -55.428200 0.031151 -4.994500 0.703757 -0.000000 -0.000000 0.000000 -0.000000 -0.000000 0.000000 -0.000000 -0.000000 0.000000 -7.730910 5.474880 -0.417314 -0.000000 -0.000000 0.000000 -2.905540 0.965183 -0.102902 -0.000000 -0.000000 0.000000 -10.278600 0.731801 -0.025912 -0.000000 -0.000000 0.000000 -2.221670 -0.733487 0.208920 -0.000000 0.000000 -0.000000 -5.267290 -31.153200 -11.765500 -168.546005 83.452499 167.988998 -1.621940 -26.110399 2.398430 0.000000 0.000000 0.000000 -8.806150 -11.530600 -2.729660 0.077886 12.174900 0.352148 0.984044 -1.376110 -6.477790
87.818703 66.441002 55.437801 1.472700 -4.484200 7.103200 -5.251730 9.526830 2.060980 0.616577 -3.272890 0.359440 11.419500 4.449020 16.715500 -35.333401 13.041800 35.520000 -0.000000 0.000000 0.000000 -0.000000 0.000000 0.000000 0.000000 -0.000000 -0.000000 85.435303 31.694000 -8.001710 -23.038300 -17.401501 46.690102 -0.034400 -5.236310 -0.738065 -0.000000 -0.000000 -0.000000 -0.000000 -0.000000 -0.000000 -0.000000 -0.000000 -0.000000 7.730910 5.474880 0.417314 -0.000000 -0.000000 -0.000000 2.905540 0.965183 0.102902 -0.000000 -0.000000 -0.000000 10.278600 0.731801 0.025912 -0.000000 -0.000000 -0.000000 2.221670 -0.733487 -0.208920 0.000000 -0.000000 -0.000000 -79.830704 20.652399 4.708970 25.606100 -22.463200 -55.190399 0.027769 -4.705330 0.662827 -0.000000 -0.000000 0.000000 -0.000000 -0.000000 0.000000 -0.000000 -0.000000 0.000000 -7.730910 5.474880 -0.417314 -0.000000 -0.000000 0.000000 -2.905540 0.965183 -0.102902 -0.000000 -0.000000 0.000000 -10.278600 0.731801 -0.025912 -0.000000 -0.000000 0.000000 -2.221670 -0.733487 0.208920 -0.000000 0.000000 -0.000000 -5.518500 -33.456799 -12.191700 -166.707993 84.440399 166.166000 -1.788970 -25.461399 1.324770 0.000000 0.000000 0.000000 -8.703190 -10.586600 -2.706700 0.068807 11.358000 0.287213 1.038120 -1.272000 -6.683870
